<mxfile host="Electron" modified="2025-01-28T06:06:13.997Z" agent="Mozilla/5.0 (Macintosh; Intel Mac OS X 10_15_7) AppleWebKit/537.36 (KHTML, like Gecko) draw.io/21.6.5 Chrome/114.0.5735.243 Electron/25.3.1 Safari/537.36" etag="ajjBrRrqzIQkUSX0fVFY" version="21.6.5" type="device">
  <diagram name="第 1 页" id="yS2AsguZvQTeVRvHZZtk">
    <mxGraphModel dx="957" dy="454" grid="1" gridSize="10" guides="1" tooltips="1" connect="1" arrows="1" fold="1" page="1" pageScale="1" pageWidth="827" pageHeight="1169" math="0" shadow="0">
      <root>
        <mxCell id="0" />
        <mxCell id="1" parent="0" />
        <mxCell id="lcjpUKnTIqmGxF52fR10-5" style="edgeStyle=orthogonalEdgeStyle;rounded=0;orthogonalLoop=1;jettySize=auto;html=1;entryX=0.5;entryY=0;entryDx=0;entryDy=0;" parent="1" source="lcjpUKnTIqmGxF52fR10-1" target="lcjpUKnTIqmGxF52fR10-2" edge="1">
          <mxGeometry relative="1" as="geometry" />
        </mxCell>
        <mxCell id="lcjpUKnTIqmGxF52fR10-18" style="edgeStyle=orthogonalEdgeStyle;rounded=0;orthogonalLoop=1;jettySize=auto;html=1;entryX=0.5;entryY=0;entryDx=0;entryDy=0;entryPerimeter=0;" parent="1" source="lcjpUKnTIqmGxF52fR10-1" edge="1" target="lcjpUKnTIqmGxF52fR10-25">
          <mxGeometry relative="1" as="geometry">
            <mxPoint x="520" y="359.9999999999999" as="targetPoint" />
          </mxGeometry>
        </mxCell>
        <mxCell id="lcjpUKnTIqmGxF52fR10-19" value="指定操作" style="edgeLabel;html=1;align=center;verticalAlign=middle;resizable=0;points=[];" parent="lcjpUKnTIqmGxF52fR10-18" vertex="1" connectable="0">
          <mxGeometry x="-0.8961" y="1" relative="1" as="geometry">
            <mxPoint x="15" y="1" as="offset" />
          </mxGeometry>
        </mxCell>
        <mxCell id="lcjpUKnTIqmGxF52fR10-1" value="開始" style="rounded=1;whiteSpace=wrap;html=1;" parent="1" vertex="1">
          <mxGeometry x="360" y="120" width="80" height="40" as="geometry" />
        </mxCell>
        <mxCell id="lcjpUKnTIqmGxF52fR10-6" style="edgeStyle=orthogonalEdgeStyle;rounded=0;orthogonalLoop=1;jettySize=auto;html=1;entryX=0.5;entryY=0;entryDx=0;entryDy=0;" parent="1" source="lcjpUKnTIqmGxF52fR10-2" target="lcjpUKnTIqmGxF52fR10-4" edge="1">
          <mxGeometry relative="1" as="geometry" />
        </mxCell>
        <mxCell id="lcjpUKnTIqmGxF52fR10-2" value="上傳知識" style="shape=parallelogram;perimeter=parallelogramPerimeter;whiteSpace=wrap;html=1;fixedSize=1;" parent="1" vertex="1">
          <mxGeometry x="360" y="200" width="80" height="40" as="geometry" />
        </mxCell>
        <mxCell id="lcjpUKnTIqmGxF52fR10-10" style="edgeStyle=orthogonalEdgeStyle;rounded=0;orthogonalLoop=1;jettySize=auto;html=1;entryX=0.5;entryY=0;entryDx=0;entryDy=0;" parent="1" source="lcjpUKnTIqmGxF52fR10-4" target="0Yt6iE0sH9dDF62poHIv-6" edge="1">
          <mxGeometry relative="1" as="geometry">
            <mxPoint x="230" y="300" as="targetPoint" />
          </mxGeometry>
        </mxCell>
        <mxCell id="0Yt6iE0sH9dDF62poHIv-3" value="鍵 / 值" style="edgeLabel;html=1;align=center;verticalAlign=middle;resizable=0;points=[];" vertex="1" connectable="0" parent="lcjpUKnTIqmGxF52fR10-10">
          <mxGeometry x="-0.5326" y="-1" relative="1" as="geometry">
            <mxPoint x="20" y="1" as="offset" />
          </mxGeometry>
        </mxCell>
        <mxCell id="lcjpUKnTIqmGxF52fR10-12" style="edgeStyle=orthogonalEdgeStyle;rounded=0;orthogonalLoop=1;jettySize=auto;html=1;entryX=0.5;entryY=0;entryDx=0;entryDy=0;" parent="1" source="lcjpUKnTIqmGxF52fR10-4" target="lcjpUKnTIqmGxF52fR10-8" edge="1">
          <mxGeometry relative="1" as="geometry" />
        </mxCell>
        <mxCell id="0Yt6iE0sH9dDF62poHIv-1" value="文件" style="edgeLabel;html=1;align=center;verticalAlign=middle;resizable=0;points=[];" vertex="1" connectable="0" parent="lcjpUKnTIqmGxF52fR10-12">
          <mxGeometry x="-0.3857" relative="1" as="geometry">
            <mxPoint y="-21" as="offset" />
          </mxGeometry>
        </mxCell>
        <mxCell id="lcjpUKnTIqmGxF52fR10-4" value="知識類型" style="rhombus;whiteSpace=wrap;html=1;" parent="1" vertex="1">
          <mxGeometry x="360" y="280" width="80" height="40" as="geometry" />
        </mxCell>
        <mxCell id="0Yt6iE0sH9dDF62poHIv-11" style="edgeStyle=orthogonalEdgeStyle;rounded=0;orthogonalLoop=1;jettySize=auto;html=1;" edge="1" parent="1" source="lcjpUKnTIqmGxF52fR10-7">
          <mxGeometry relative="1" as="geometry">
            <mxPoint x="400" y="500" as="targetPoint" />
            <Array as="points">
              <mxPoint x="280" y="500" />
            </Array>
          </mxGeometry>
        </mxCell>
        <mxCell id="lcjpUKnTIqmGxF52fR10-7" value="CAG" style="shape=process;whiteSpace=wrap;html=1;backgroundOutline=1;" parent="1" vertex="1">
          <mxGeometry x="240" y="440" width="80" height="40" as="geometry" />
        </mxCell>
        <mxCell id="lcjpUKnTIqmGxF52fR10-21" style="edgeStyle=orthogonalEdgeStyle;rounded=0;orthogonalLoop=1;jettySize=auto;html=1;entryX=0.5;entryY=0;entryDx=0;entryDy=0;" parent="1" source="lcjpUKnTIqmGxF52fR10-8" target="lcjpUKnTIqmGxF52fR10-17" edge="1">
          <mxGeometry relative="1" as="geometry" />
        </mxCell>
        <mxCell id="lcjpUKnTIqmGxF52fR10-8" value="RAG" style="shape=process;whiteSpace=wrap;html=1;backgroundOutline=1;" parent="1" vertex="1">
          <mxGeometry x="360" y="440" width="80" height="40" as="geometry" />
        </mxCell>
        <mxCell id="lcjpUKnTIqmGxF52fR10-17" value="結束" style="ellipse;whiteSpace=wrap;html=1;aspect=fixed;" parent="1" vertex="1">
          <mxGeometry x="380" y="520" width="40" height="40" as="geometry" />
        </mxCell>
        <mxCell id="0Yt6iE0sH9dDF62poHIv-7" style="edgeStyle=orthogonalEdgeStyle;rounded=0;orthogonalLoop=1;jettySize=auto;html=1;" edge="1" parent="1" source="lcjpUKnTIqmGxF52fR10-25">
          <mxGeometry relative="1" as="geometry">
            <mxPoint x="400" y="500" as="targetPoint" />
            <Array as="points">
              <mxPoint x="520" y="500" />
            </Array>
          </mxGeometry>
        </mxCell>
        <mxCell id="lcjpUKnTIqmGxF52fR10-25" value="開發" style="shape=card;whiteSpace=wrap;html=1;" parent="1" vertex="1">
          <mxGeometry x="480" y="440" width="80" height="40" as="geometry" />
        </mxCell>
        <mxCell id="0Yt6iE0sH9dDF62poHIv-15" style="edgeStyle=orthogonalEdgeStyle;rounded=0;orthogonalLoop=1;jettySize=auto;html=1;exitX=1;exitY=0.5;exitDx=0;exitDy=0;entryX=0.5;entryY=0;entryDx=0;entryDy=0;" edge="1" parent="1" source="0Yt6iE0sH9dDF62poHIv-6" target="lcjpUKnTIqmGxF52fR10-7">
          <mxGeometry relative="1" as="geometry" />
        </mxCell>
        <mxCell id="0Yt6iE0sH9dDF62poHIv-17" value="彈性答覆" style="edgeLabel;html=1;align=center;verticalAlign=middle;resizable=0;points=[];" vertex="1" connectable="0" parent="0Yt6iE0sH9dDF62poHIv-15">
          <mxGeometry x="-0.7537" relative="1" as="geometry">
            <mxPoint x="20" as="offset" />
          </mxGeometry>
        </mxCell>
        <mxCell id="0Yt6iE0sH9dDF62poHIv-16" style="edgeStyle=orthogonalEdgeStyle;rounded=0;orthogonalLoop=1;jettySize=auto;html=1;exitX=0;exitY=0.5;exitDx=0;exitDy=0;entryX=0.5;entryY=0;entryDx=0;entryDy=0;" edge="1" parent="1" source="0Yt6iE0sH9dDF62poHIv-6" target="0Yt6iE0sH9dDF62poHIv-8">
          <mxGeometry relative="1" as="geometry" />
        </mxCell>
        <mxCell id="0Yt6iE0sH9dDF62poHIv-19" value="固定答覆" style="edgeLabel;html=1;align=center;verticalAlign=middle;resizable=0;points=[];" vertex="1" connectable="0" parent="0Yt6iE0sH9dDF62poHIv-16">
          <mxGeometry x="-0.2504" y="-1" relative="1" as="geometry">
            <mxPoint x="-12" y="-10" as="offset" />
          </mxGeometry>
        </mxCell>
        <mxCell id="0Yt6iE0sH9dDF62poHIv-6" value="鍵值類型" style="rhombus;whiteSpace=wrap;html=1;" vertex="1" parent="1">
          <mxGeometry x="180" y="360" width="80" height="40" as="geometry" />
        </mxCell>
        <mxCell id="0Yt6iE0sH9dDF62poHIv-12" style="edgeStyle=orthogonalEdgeStyle;rounded=0;orthogonalLoop=1;jettySize=auto;html=1;" edge="1" parent="1" source="0Yt6iE0sH9dDF62poHIv-8">
          <mxGeometry relative="1" as="geometry">
            <mxPoint x="400" y="500" as="targetPoint" />
            <Array as="points">
              <mxPoint x="160" y="500" />
            </Array>
          </mxGeometry>
        </mxCell>
        <mxCell id="0Yt6iE0sH9dDF62poHIv-8" value="Cache" style="shape=process;whiteSpace=wrap;html=1;backgroundOutline=1;" vertex="1" parent="1">
          <mxGeometry x="120" y="440" width="80" height="40" as="geometry" />
        </mxCell>
      </root>
    </mxGraphModel>
  </diagram>
</mxfile>
